<svg xmlns="http://www.w3.org/2000/svg" viewBox="0 0 100 100">
  <circle cx="50" cy="50" r="44" fill="none" stroke="#c9a96e" stroke-width="2.5"/>
  <ellipse cx="50" cy="54" rx="28" ry="20" fill="#c9a96e" opacity="0.15"/>
  <g fill="#c9a96e">
    <ellipse cx="68" cy="38" rx="9" ry="7" fill="#c9a96e"/>
    <circle cx="71" cy="36" r="1.5" fill="#1e2235"/>
    <ellipse cx="76" cy="40" rx="5" ry="3" fill="#c9a96e"/>
    <ellipse cx="58" cy="42" rx="9" ry="5" fill="#c9a96e"/>
    <ellipse cx="49" cy="44" rx="9" ry="5" fill="#c9a96e"/>
    <ellipse cx="40" cy="48" rx="9" ry="5" fill="#c9a96e"/>
    <ellipse cx="33" cy="54" rx="9" ry="5" fill="#c9a96e"/>
    <ellipse cx="55" cy="49" rx="8" ry="4.5" fill="#b8924a"/>
    <ellipse cx="46" cy="53" rx="8" ry="4.5" fill="#b8924a"/>
    <ellipse cx="37" cy="59" rx="8" ry="4.5" fill="#b8924a"/>
    <ellipse cx="34" cy="66" rx="10" ry="6" fill="#c9a96e"/>
    <ellipse cx="42" cy="72" rx="8" ry="5" fill="#b8924a"/>
    <ellipse cx="52" cy="74" rx="7" ry="4" fill="#c9a96e"/>
    <ellipse cx="61" cy="70" rx="6" ry="3.5" fill="#b8924a"/>
    <ellipse cx="44" cy="68" rx="4" ry="6" fill="#c9a96e"/>
    <ellipse cx="56" cy="66" rx="4" ry="5" fill="#c9a96e"/>
    <polygon points="80,25 81.5,28.5 85,28.5 82.5,31 83.5,34.5 80,32.5 76.5,34.5 77.5,31 75,28.5 78.5,28.5" fill="#c9a96e"/>
  </g>
  <path d="M 20 76 Q 35 72 50 74 Q 65 76 80 73" stroke="#c9a96e" stroke-width="1.5" fill="none" opacity="0.6"/>
  <line x1="50" y1="74" x2="50" y2="65" stroke="#c9a96e" stroke-width="1.5"/>
  <ellipse cx="50" cy="63" rx="6" ry="3" fill="#c9a96e" opacity="0.7"/>
</svg>
